<svg height="1093" width="943" xmlns="http://www.w3.org/2000/svg">
 <!-- Created with Image Occlusion Enhanced -->
 <g>
  <title>Labels</title>
 </g>
 <g>
  <title>Masks</title>
  <rect fill="#FFEBA2" height="63.1068" id="130692c4d08b4b9090668093679ef0fd-ao-1" stroke="#2D2D2D" width="81.5534" x="335.64081" y="430.30091"/>
  <rect fill="#FFEBA2" height="28.15534" id="130692c4d08b4b9090668093679ef0fd-ao-2" stroke="#2D2D2D" width="101.94175" x="32.72818" y="331.27178"/>
  <rect fill="#FFEBA2" height="29.12621" id="130692c4d08b4b9090668093679ef0fd-ao-3" stroke="#2D2D2D" width="119.41748" x="30.78643" y="277.87372"/>
  <rect fill="#FFEBA2" height="41.74757" id="130692c4d08b4b9090668093679ef0fd-ao-4" stroke="#2D2D2D" width="128.15534" x="410.39809" y="712.82519"/>
  <rect fill="#FFEBA2" height="45.63107" id="130692c4d08b4b9090668093679ef0fd-ao-5" stroke="#2D2D2D" width="144.6602" x="410.39809" y="795.34946"/>
  <rect fill="#FFEBA2" height="24.27185" id="130692c4d08b4b9090668093679ef0fd-ao-6" stroke="#2D2D2D" width="103.8835" x="407.48547" y="872.04849"/>
  <rect fill="#FFEBA2" height="30.09709" id="130692c4d08b4b9090668093679ef0fd-ao-7" stroke="#2D2D2D" width="126.2136" x="407.48547" y="918.65044"/>
  <rect fill="#FFEBA2" height="29.12621" id="130692c4d08b4b9090668093679ef0fd-ao-8" stroke="#2D2D2D" width="82.52427" x="368.65052" y="1017.67957"/>
  <rect fill="#FFEBA2" height="26.21359" id="130692c4d08b4b9090668093679ef0fd-ao-9" stroke="#2D2D2D" width="100" x="7.48546" y="1021.56306"/>
  <rect fill="#FFEBA2" height="50.48544" id="130692c4d08b4b9090668093679ef0fd-ao-10" stroke="#2D2D2D" width="79.61165" x="23.99031" y="937.09704"/>
  <rect fill="#FFEBA2" height="43.68932" id="130692c4d08b4b9090668093679ef0fd-ao-11" stroke="#2D2D2D" width="42.71845" x="16.22332" y="847.77665"/>
  <rect fill="#FFEBA2" height="33.98058" id="130692c4d08b4b9090668093679ef0fd-ao-12" stroke="#2D2D2D" width="114.56311" x="17.1942" y="792.43684"/>
  <rect fill="#FFEBA2" height="48.54369" id="130692c4d08b4b9090668093679ef0fd-ao-13" stroke="#2D2D2D" width="124.27185" x="52.14565" y="721.56305"/>
  <rect class="qshape" fill="#FF7E7E" height="29.12621" id="130692c4d08b4b9090668093679ef0fd-ao-14" stroke="#2D2D2D" width="112.62136" x="42.43692" y="651.66014"/>
  <rect fill="#FFEBA2" height="39.80583" id="130692c4d08b4b9090668093679ef0fd-ao-15" stroke="#2D2D2D" width="95.14563" x="32.72818" y="582.7281"/>
  <rect fill="#FFEBA2" height="39.80583" id="130692c4d08b4b9090668093679ef0fd-ao-16" stroke="#2D2D2D" width="111.65049" x="28.84468" y="510.88344"/>
 </g>
</svg>