<svg height="859" width="1401" xmlns="http://www.w3.org/2000/svg">
 <!-- Created with Image Occlusion Enhanced -->
 <g>
  <title>Labels</title>
 </g>
 <g display="inline">
  <title>Masks</title>
  <rect fill="#FFEBA2" height="105.92593" id="298d820398eb4ef890bc667e47ff67c3-oa-1" stroke="#2D2D2D" width="185.18519" x="174.55558" y="167.66664"/>
  <rect fill="#FFEBA2" height="105.18519" id="298d820398eb4ef890bc667e47ff67c3-oa-2" stroke="#2D2D2D" width="245.92593" x="1141.963" y="170.6296"/>
  <rect fill="#FFEBA2" height="105.18519" id="298d820398eb4ef890bc667e47ff67c3-oa-3" stroke="#2D2D2D" width="243.70371" x="1141.963" y="285.44442"/>
  <rect fill="#FFEBA2" height="107.40741" id="298d820398eb4ef890bc667e47ff67c3-oa-4" stroke="#2D2D2D" width="177.77778" x="953.0741" y="168.40738"/>
  <rect fill="#FFEBA2" height="105.92593" id="298d820398eb4ef890bc667e47ff67c3-oa-5" stroke="#2D2D2D" width="177.03704" x="954.55559" y="283.22219"/>
  <rect fill="#FFEBA2" height="220.74074" id="298d820398eb4ef890bc667e47ff67c3-oa-6" stroke="#2D2D2D" width="128.88889" x="815.29632" y="168.40738"/>
  <rect fill="#FFEBA2" height="101.48148" id="298d820398eb4ef890bc667e47ff67c3-oa-7" stroke="#2D2D2D" width="210.37037" x="595.29632" y="170.6296"/>
  <rect fill="#FFEBA2" height="102.96296" id="298d820398eb4ef890bc667e47ff67c3-oa-8" stroke="#2D2D2D" width="207.40741" x="596.03706" y="283.96293"/>
  <rect fill="#FFEBA2" height="101.48148" id="298d820398eb4ef890bc667e47ff67c3-oa-10" stroke="#2D2D2D" width="182.96297" x="175.29632" y="283.96293"/>
  <rect fill="#FFEBA2" height="87.40741" id="298d820398eb4ef890bc667e47ff67c3-oa-1" stroke="#2D2D2D" width="184.44445" x="172.88891" y="436.37034"/>
  <rect fill="#FFEBA2" height="82.96296" id="298d820398eb4ef890bc667e47ff67c3-oa-2" stroke="#2D2D2D" width="184.44445" x="175.11113" y="533.40738"/>
  <rect fill="#FFEBA2" height="93.33333" id="298d820398eb4ef890bc667e47ff67c3-oa-3" stroke="#2D2D2D" width="184.44445" x="174.55558" y="663.2222"/>
  <rect fill="#FFEBA2" height="89.62963" id="298d820398eb4ef890bc667e47ff67c3-oa-4" stroke="#2D2D2D" width="183.70371" x="174.55558" y="763.2222"/>
  <rect fill="#FFEBA2" height="180" id="298d820398eb4ef890bc667e47ff67c3-oa-5" stroke="#2D2D2D" width="132.59259" x="814.55558" y="666.18516"/>
  <rect fill="#FFEBA2" height="184.44445" id="298d820398eb4ef890bc667e47ff67c3-oa-6" stroke="#2D2D2D" width="134.81482" x="811.40743" y="433.40738"/>
  <rect fill="#FFEBA2" height="183.70371" id="298d820398eb4ef890bc667e47ff67c3-oa-7" stroke="#2D2D2D" width="176.2963" x="952.88892" y="434.14812"/>
  <rect fill="#FFEBA2" height="185.92593" id="298d820398eb4ef890bc667e47ff67c3-oa-8" stroke="#2D2D2D" width="250.37037" x="1137.33336" y="434.14812"/>
  <rect fill="#FFEBA2" height="94.07408" id="298d820398eb4ef890bc667e47ff67c3-oa-9" stroke="#2D2D2D" width="249.62963" x="1139.74077" y="664.70368"/>
  <rect fill="#FFEBA2" height="86.66667" id="298d820398eb4ef890bc667e47ff67c3-oa-19" stroke="#2D2D2D" width="250.37037" x="1139.00003" y="764.70368"/>
 </g>
</svg>