<svg height="884" width="833" xmlns="http://www.w3.org/2000/svg">
 <!-- Created with Image Occlusion Enhanced -->
 <g>
  <title>Labels</title>
 </g>
 <g>
  <title>Masks</title>
  <rect fill="#FFEBA2" height="30.70866" id="2ca94d1e95aa43ad8130a26b860bf4c5-ao-1" stroke="#2D2D2D" width="108.66141" x="170.93698" y="143.559"/>
  <rect fill="#FFEBA2" height="40.15748" id="2ca94d1e95aa43ad8130a26b860bf4c5-ao-2" stroke="#2D2D2D" width="90.55118" x="9.51966" y="335.68498"/>
  <rect class="qshape" fill="#FF7E7E" height="32.28346" id="2ca94d1e95aa43ad8130a26b860bf4c5-ao-3" stroke="#2D2D2D" width="110.23622" x="13.45667" y="264.03144"/>
  <rect fill="#FFEBA2" height="30.70866" id="2ca94d1e95aa43ad8130a26b860bf4c5-ao-4" stroke="#2D2D2D" width="125.98425" x="57.55115" y="200.25191"/>
  <rect fill="#FFEBA2" height="38.58268" id="2ca94d1e95aa43ad8130a26b860bf4c5-ao-5" stroke="#2D2D2D" width="87.40157" x="11.88186" y="412.85033"/>
  <rect fill="#FFEBA2" height="22.83464" id="2ca94d1e95aa43ad8130a26b860bf4c5-ao-6" stroke="#2D2D2D" width="155.90551" x="50.46454" y="587.65348"/>
  <rect fill="#FFEBA2" height="25.98425" id="2ca94d1e95aa43ad8130a26b860bf4c5-ao-7" stroke="#2D2D2D" width="214.96062" x="2.43304" y="629.38576"/>
  <rect fill="#FFEBA2" height="30.70866" id="2ca94d1e95aa43ad8130a26b860bf4c5-ao-8" stroke="#2D2D2D" width="121.25984" x="581.96058" y="680.56686"/>
  <rect fill="#FFEBA2" height="43.30709" id="2ca94d1e95aa43ad8130a26b860bf4c5-ao-9" stroke="#2D2D2D" width="115.74803" x="699.28342" y="576.62985"/>
  <rect fill="#FFEBA2" height="29.92126" id="2ca94d1e95aa43ad8130a26b860bf4c5-ao-10" stroke="#2D2D2D" width="107.87401" x="607.15743" y="645.92119"/>
  <rect fill="#FFEBA2" height="25.19685" id="2ca94d1e95aa43ad8130a26b860bf4c5-ao-11" stroke="#2D2D2D" width="121.25984" x="670.14956" y="259.30703"/>
  <rect fill="#FFEBA2" height="25.98425" id="2ca94d1e95aa43ad8130a26b860bf4c5-ao-12" stroke="#2D2D2D" width="170.07873" x="594.55901" y="197.10231"/>
  <rect fill="#FFEBA2" height="19.68504" id="2ca94d1e95aa43ad8130a26b860bf4c5-ao-13" stroke="#2D2D2D" width="155.90551" x="559.12594" y="172.69286"/>
  <rect fill="#FFEBA2" height="12.59842" id="2ca94d1e95aa43ad8130a26b860bf4c5-ao-14" stroke="#2D2D2D" width="165.35433" x="551.25192" y="153.00782"/>
  <rect fill="#FFEBA2" height="22.04724" id="2ca94d1e95aa43ad8130a26b860bf4c5-ao-15" stroke="#2D2D2D" width="162.99212" x="518.96846" y="93.9527"/>
  <rect fill="#FFEBA2" height="22.04724" id="2ca94d1e95aa43ad8130a26b860bf4c5-ao-16" stroke="#2D2D2D" width="154.3307" x="488.2598" y="45.13381"/>
  <rect fill="#FFEBA2" height="28.34646" id="2ca94d1e95aa43ad8130a26b860bf4c5-ao-17" stroke="#2D2D2D" width="176.37795" x="122.90548" y="41.9842"/>
  <rect fill="#FFEBA2" height="29.92126" id="2ca94d1e95aa43ad8130a26b860bf4c5-ao-18" stroke="#2D2D2D" width="142.51968" x="580.38578" y="766.39363"/>
 </g>
</svg>