<svg height="824" width="714" xmlns="http://www.w3.org/2000/svg">
 <!-- Created with Image Occlusion Enhanced -->
 <g>
  <title>Labels</title>
 </g>
 <g>
  <title>Masks</title>
  <g id="309615517bc343478cbd87a14bc8eed2-ao-1">
   <rect fill="#FFEBA2" height="22.05882" stroke="#2D2D2D" width="46.32353" x="399.23532" y="404.67645"/>
   <rect fill="#FFEBA2" height="30.14706" stroke="#2D2D2D" width="47.79412" x="420.55885" y="297.32351"/>
   <rect fill="#FFEBA2" height="22.05882" stroke="#2D2D2D" width="32.35294" x="442.61767" y="189.97057"/>
   <rect fill="#FFEBA2" height="16.17647" stroke="#2D2D2D" width="27.20588" x="494.08826" y="194.38233"/>
   <rect fill="#FFEBA2" height="23.52941" stroke="#2D2D2D" width="36.76471" x="518.35297" y="95.85292"/>
   <rect fill="#FFEBA2" height="29.41177" stroke="#2D2D2D" width="46.32353" x="405.11767" y="614.97058"/>
   <rect fill="#FFEBA2" height="19.11765" stroke="#2D2D2D" width="33.08824" x="374.23532" y="687.7647"/>
  </g>
  <g id="309615517bc343478cbd87a14bc8eed2-ao-2">
   <rect fill="#FFEBA2" height="21.32353" stroke="#2D2D2D" width="27.20588" x="386.00002" y="473.7941"/>
   <g>
    <rect fill="#FFEBA2" height="39.70588" stroke="#2D2D2D" width="19.11765" x="411.00003" y="185.5588"/>
    <rect fill="#FFEBA2" height="44.85294" stroke="#2D2D2D" width="16.17647" x="391.14708" y="179.67645"/>
    <rect fill="#FFEBA2" height="37.5" stroke="#2D2D2D" width="12.5" x="372.76473" y="185.5588"/>
    <rect fill="#FFEBA2" height="50" stroke="#2D2D2D" width="18.38235" x="345.55885" y="174.52939"/>
    <rect fill="#FFEBA2" height="42.64706" stroke="#2D2D2D" width="18.38235" x="319.08826" y="180.41174"/>
    <rect fill="#FFEBA2" height="41.17647" stroke="#2D2D2D" width="22.79412" x="288.20591" y="183.35292"/>
    <rect fill="#FFEBA2" height="36.76471" stroke="#2D2D2D" width="19.11765" x="266.88238" y="186.2941"/>
    <rect fill="#FFEBA2" height="41.17647" stroke="#2D2D2D" width="11.02941" x="252.17649" y="183.35292"/>
    <rect fill="#FFEBA2" height="33.08824" stroke="#2D2D2D" stroke-dasharray="null" stroke-linecap="null" stroke-linejoin="null" width="18.38235" x="176.4412" y="187.76468"/>
    <rect fill="#FFEBA2" height="32.35294" stroke="#2D2D2D" stroke-dasharray="null" stroke-linecap="null" stroke-linejoin="null" width="18.38235" x="200.7059" y="187.76468"/>
    <rect fill="#FFEBA2" height="33.82353" stroke="#2D2D2D" stroke-dasharray="null" stroke-linecap="null" stroke-linejoin="null" width="22.05882" x="224.23532" y="187.02939"/>
   </g>
  </g>
  <g class="qshape" id="309615517bc343478cbd87a14bc8eed2-ao-3">
   <rect class="qshape" fill="#FF7E7E" height="20.58824" stroke="#2D2D2D" width="36.76471" x="134.52943" y="606.14705"/>
   <rect class="qshape" fill="#FF7E7E" height="26.47059" stroke="#2D2D2D" width="43.38235" x="186.73531" y="473.05881"/>
   <rect class="qshape" fill="#FF7E7E" height="13.23529" stroke="#2D2D2D" stroke-dasharray="null" stroke-linecap="null" stroke-linejoin="null" width="19.11765" x="108.05884" y="201.73527"/>
   <rect class="qshape" fill="#FF7E7E" height="19.85294" stroke="#2D2D2D" stroke-dasharray="null" stroke-linecap="null" stroke-linejoin="null" width="24.26471" x="127.91178" y="764.97058"/>
   <rect class="qshape" fill="#FF7E7E" height="16.17647" stroke="#2D2D2D" stroke-dasharray="null" stroke-linecap="null" stroke-linejoin="null" width="15.44118" x="133.05884" y="201.73527"/>
   <rect class="qshape" fill="#FF7E7E" height="13.97059" stroke="#2D2D2D" stroke-dasharray="null" stroke-linecap="null" stroke-linejoin="null" width="16.91177" x="152.17649" y="200.99998"/>
  </g>
  <g id="309615517bc343478cbd87a14bc8eed2-ao-4">
   <rect fill="#FFEBA2" height="22.05882" stroke="#2D2D2D" width="21.32353" x="63.2059" y="206.88233"/>
   <rect fill="#FFEBA2" height="22.79412" stroke="#2D2D2D" width="19.11765" x="85.26472" y="195.11763"/>
   <rect fill="#FFEBA2" height="19.11765" stroke="#2D2D2D" stroke-dasharray="null" stroke-linecap="null" stroke-linejoin="null" width="32.35294" x="24.9706" y="189.23527"/>
   <rect fill="#FFEBA2" height="16.17647" stroke="#2D2D2D" stroke-dasharray="null" stroke-linecap="null" stroke-linejoin="null" width="34.55882" x="6.58825" y="211.2941"/>
   <rect fill="#FFEBA2" height="17.64706" stroke="#2D2D2D" stroke-dasharray="null" stroke-linecap="null" stroke-linejoin="null" width="30.88235" x="-0.76469" y="233.35292"/>
   <rect fill="#FFEBA2" height="27.94118" stroke="#2D2D2D" stroke-dasharray="null" stroke-linecap="null" stroke-linejoin="null" width="38.97059" x="40.41178" y="772.32352"/>
   <rect fill="#FFEBA2" height="17.64706" stroke="#2D2D2D" stroke-dasharray="null" stroke-linecap="null" stroke-linejoin="null" width="30.14706" x="92.61767" y="782.61764"/>
  </g>
 </g>
</svg>