<svg height="860" width="1082" xmlns="http://www.w3.org/2000/svg">
 <!-- Created with Image Occlusion Enhanced -->
 <g>
  <title>Labels</title>
 </g>
 <g>
  <title>Masks</title>
  <rect fill="#FFEBA2" height="56.73077" id="84a98e2972c24665acb8ebbd328fbe31-ao-1" stroke="#2D2D2D" width="404.80768" x="187.23074" y="50.5769"/>
  <rect fill="#FFEBA2" height="32.69231" id="84a98e2972c24665acb8ebbd328fbe31-ao-2" stroke="#2D2D2D" width="168.26923" x="668.96149" y="57.30767"/>
  <rect fill="#FFEBA2" height="24.03846" id="84a98e2972c24665acb8ebbd328fbe31-ao-3" stroke="#2D2D2D" width="191.34615" x="743.96149" y="105.38459"/>
  <rect fill="#FFEBA2" height="23.07692" id="84a98e2972c24665acb8ebbd328fbe31-ao-4" stroke="#2D2D2D" width="220.1923" x="798.76918" y="149.61536"/>
  <rect fill="#FFEBA2" height="27.88461" id="84a98e2972c24665acb8ebbd328fbe31-ao-5" stroke="#2D2D2D" width="189.42307" x="850.69226" y="192.88459"/>
  <rect fill="#FFEBA2" height="42.30769" id="84a98e2972c24665acb8ebbd328fbe31-ao-6" stroke="#2D2D2D" width="123.07692" x="922.80764" y="241.92305"/>
  <rect fill="#FFEBA2" height="50.96154" id="84a98e2972c24665acb8ebbd328fbe31-ao-7" stroke="#2D2D2D" width="103.84615" x="968.96149" y="304.42304"/>
  <rect fill="#FFEBA2" height="37.5" id="84a98e2972c24665acb8ebbd328fbe31-ao-8" stroke="#2D2D2D" width="103.84615" x="961.26918" y="371.73074"/>
  <rect fill="#FFEBA2" height="26.92308" id="84a98e2972c24665acb8ebbd328fbe31-ao-9" stroke="#2D2D2D" width="84.61538" x="971.8461" y="430.38458"/>
  <rect fill="#FFEBA2" height="30.76923" id="84a98e2972c24665acb8ebbd328fbe31-ao-10" stroke="#2D2D2D" width="181.73076" x="760.30764" y="655.38457"/>
  <rect fill="#FFEBA2" height="20.19231" id="84a98e2972c24665acb8ebbd328fbe31-ao-11" stroke="#2D2D2D" width="143.26923" x="714.1538" y="703.4615"/>
  <rect fill="#FFEBA2" height="32.69231" id="84a98e2972c24665acb8ebbd328fbe31-ao-12" stroke="#2D2D2D" width="190.38461" x="656.46149" y="744.80765"/>
  <rect fill="#FFEBA2" height="24.03846" id="84a98e2972c24665acb8ebbd328fbe31-ao-13" stroke="#2D2D2D" width="217.30769" x="351.65381" y="757.30765"/>
  <rect fill="#FFEBA2" height="22.11538" id="84a98e2972c24665acb8ebbd328fbe31-ao-14" stroke="#2D2D2D" width="184.61538" x="342.03842" y="721.73073"/>
  <rect fill="#FFEBA2" height="18.26923" id="84a98e2972c24665acb8ebbd328fbe31-ao-15" stroke="#2D2D2D" width="74.03846" x="365.11535" y="688.07688"/>
 </g>
</svg>