<svg height="621" width="656" xmlns="http://www.w3.org/2000/svg">
 <!-- Created with Image Occlusion Enhanced -->
 <g>
  <title>Labels</title>
 </g>
 <g>
  <title>Masks</title>
  
  <rect fill="#FFEBA2" height="47.54522" id="a3e8ebd55be74d5b89d50d5ab33df7a4-ao-2" stroke="#2D2D2D" width="107.49354" x="52.01034" y="182.10077"/>
  <rect fill="#FFEBA2" height="31.00775" id="a3e8ebd55be74d5b89d50d5ab33df7a4-ao-3" stroke="#2D2D2D" width="127.13178" x="31.33851" y="247.21705"/>
  <rect fill="#FFEBA2" height="64.08269" id="a3e8ebd55be74d5b89d50d5ab33df7a4-ao-4" stroke="#2D2D2D" width="157.10594" x="1.36435" y="360.91214"/>
  <rect fill="#FFEBA2" height="51.67959" id="a3e8ebd55be74d5b89d50d5ab33df7a4-ao-5" stroke="#2D2D2D" width="125.0646" x="33.40569" y="457.03617"/>
  <rect fill="#FFEBA2" height="36.17571" id="a3e8ebd55be74d5b89d50d5ab33df7a4-ao-6" stroke="#2D2D2D" width="151.93799" x="461.31267" y="466.3385"/>
  <rect fill="#FFEBA2" height="25.83979" id="a3e8ebd55be74d5b89d50d5ab33df7a4-ao-7" stroke="#2D2D2D" width="157.10594" x="466.48063" y="385.71834"/>
  <rect fill="#FFEBA2" height="24.8062" id="a3e8ebd55be74d5b89d50d5ab33df7a4-ao-8" stroke="#2D2D2D" width="163.3075" x="460.27908" y="346.44185"/>
  <rect fill="#FFEBA2" height="28.94057" id="a3e8ebd55be74d5b89d50d5ab33df7a4-ao-9" stroke="#2D2D2D" width="191.21447" x="463.37986" y="305.09818"/>
  <rect fill="#FFEBA2" height="28.94057" id="a3e8ebd55be74d5b89d50d5ab33df7a4-ao-10" stroke="#2D2D2D" width="139.53489" x="464.41345" y="261.68733"/>
  <rect fill="#FFEBA2" height="26.87339" id="a3e8ebd55be74d5b89d50d5ab33df7a4-ao-11" stroke="#2D2D2D" width="151.93799" x="465.44704" y="222.41084"/>
  <rect fill="#FFEBA2" height="20.67183" id="a3e8ebd55be74d5b89d50d5ab33df7a4-ao-12" stroke="#2D2D2D" width="128.16538" x="462.34627" y="193.47028"/>
  <rect fill="#FFEBA2" height="19.63824" id="a3e8ebd55be74d5b89d50d5ab33df7a4-ao-13" stroke="#2D2D2D" width="143.66925" x="467.51422" y="170.73126"/>
  <rect fill="#FFEBA2" height="33.07494" id="a3e8ebd55be74d5b89d50d5ab33df7a4-ao-14" stroke="#2D2D2D" width="131.26615" x="461.31267" y="127.3204"/>
  <rect fill="#FFEBA2" height="17.57106" id="a3e8ebd55be74d5b89d50d5ab33df7a4-ao-15" stroke="#2D2D2D" width="139.53489" x="467.51422" y="56.00257"/>
  <rect fill="#FFEBA2" height="13.43669" id="a3e8ebd55be74d5b89d50d5ab33df7a4-ao-16" stroke="#2D2D2D" width="148.83721" x="466.48063" y="33.26356"/>
  <rect fill="#FFEBA2" height="23.77261" id="a3e8ebd55be74d5b89d50d5ab33df7a4-ao-17" stroke="#2D2D2D" width="103.35917" x="466.48063" y="6.39017"/>
 </g>
</svg>